<svg xmlns="http://www.w3.org/2000/svg" height="800" width="1200" viewBox="-31.83993 -10.256775 275.94606 61.54065"><path fill="#ffcb05" d="M28.4927 33.8719l-11.63-16.0588v11.6803h4.6523V41.027H0V29.4934h4.361V11.5346H0V0h16.9l11.6497 16.205L40.2245 0h16.8987v11.5346h-4.3615v17.9588h4.3615V41.027H35.6095V29.4934h4.6509V17.813z"/><path fill="#00274c" d="M143.5127.5633c-2.2575 0-4.2012 1.3793-4.2012 3.8418 0 2.555 2.0354 3.3939 3.1191 3.7852.5225.205 1.0824.3724 1.6074.5761.6338.2638 2.0703.8584 2.0703 2.3496 0 1.4188-1.2303 2.0137-2.6328 2.0137-1.9775 0-3.193-1.1563-3.9219-3.2988l-.6718.0723.1914 2.5938 1.0977.8027c.5212.335 1.6235 1.043 3.416 1.043 2.7812 0 4.6484-1.8812 4.6484-4.1562 0-1.585-.8593-2.7412-1.9043-3.3574-.54-.3162-1.1548-.5236-1.9024-.7636-1.475-.4863-3.0254-1.0112-3.0254-2.5762 0-1.0438.8207-1.7148 2.2207-1.7148 1.0462 0 1.9424.3811 2.5762 1.2012.5225.6925.6922 1.0917.916 1.9492l.6504-.129-.4278-3.916-.8007.5762c-1.1188-.7087-2.1466-.8925-3.0254-.8925zm51.348.0918c-4.2338-.02-6.6426 3.2255-6.6426 6.8242 0 4.1975 2.9941 6.957 6.8203 6.957 3.4912 0 6.5898-2.3862 6.5898-6.9375 0-3.9912-2.7813-6.825-6.7676-6.8438zm-25.852.168v.7265c1.2688.075 1.287.1118 2.2383 1.5293l3.506 5.4277v2.3105c-.0176 1.4375-.0178 1.7728-.3165 2.0703-.2625.2612-.6534.2996-1.6797.4121v.709h6.4902v-.709c-1.9575-.1125-1.9766-.298-1.9766-2.6855V7.87l2.0508-3.4298c1.5112-2.4612 1.9016-2.8519 3.2266-2.8906V.823h-5.1465v.7266c.9138.0563 1.4531.0752 1.4531.709 0 .3-.184.6912-.5214 1.3438l-1.8633 3.2773-2.0156-3.297c-.335-.56-.5762-.9704-.5762-1.3241 0-.6338.6141-.6702 1.9941-.709V.823h-6.8633zm-42.496.0136v.711c1.0812.0912 1.4368.223 1.5293.9492.0563.4287.0742.9865.0742 2.5703v4.7637c0 .5412-.0007 1.154-.0195 1.6953-.0187 1.415-.1664 1.6412-1.584 1.75v.7324h5.498v-.7324c-1.585-.0338-1.5867-.441-1.6055-3.461l.002-1.7108c1.25.02 1.5105-.0833 2.293 1.5742l.7286 1.5488c1.045 2.2175 2.0708 3.0762 4.5508 3.0762.2987 0 .5761-.0171.8574-.0371v-.4473c-1.0638-.1462-1.5096-.5033-2.3496-2.0508l-2.332-4.0547c1.8088-.5612 2.5918-2.2117 2.5918-3.4805 0-1.8262-1.0245-3.373-4.2695-3.373l-5.9648-.0234zm-11.576.002v.709c.9513.095 1.361.1499 1.4922.7636.0925.41.1114 1.8642.1114 2.3867v4.629c0 .3537-.0184 1.9395-.0371 2.2558-.0375 1.4375-.2052 1.566-1.5664 1.6973v.7285h10.035c0-.95.1668-2.5184.2793-3.412h-.6348c-.4487 2.35-1.772 2.2343-3.6758 2.2343-1.7525 0-2.1055-.4654-2.1055-1.3242V7.8251h1.418c1.6225 0 2.088.139 2.088 1.6152h.6347V5.0926h-.6348c-.13 1.175-.3728 1.5586-2.0703 1.5586h-1.4356V2.0125h1.623c2.2362 0 3.0384.169 3.336 1.959h.5976l-.0762-3.1328h-9.379zm40.994 0l-.1113 3.6934h.6914c.1113-2.35 1.0974-2.295 2.5898-2.295h1.6426v9.6993c0 1.0462-.335 1.4949-1.5488 1.5137v.5586h5.4473l-.002-.5586c-1.2125-.0188-1.5469-.4675-1.5469-1.5137V2.2372h1.6406c1.4925 0 2.4806-.0551 2.5918 2.2949h.6914l-.1133-3.6934h-11.973zm-92.111.0039v.707c.9888.0563 1.3985.2256 1.5098 1.0469.0375.335.038.966.0567 2.3848v2.9824c0 2.1275.019 4.1059 1.9766 5.4297 1.2312.8213 2.7224.9297 3.4512.9297.9125 0 4.3648-.184 5.2598-3.7266.2237-.9513.277-1.9423.3144-2.9473.0188-.5588.1688-4.2145.1875-4.5332.075-1.3025.3364-1.584 1.5664-1.5664v-.707h-5.0176v.707c1.1762.095 1.7902.1305 1.8652 1.3242.0188.43.0196 1.9962.0196 2.4824 0 1.5288-.0182 3.8403-.3907 5.0703-.4475 1.5475-1.4827 2.5273-3.3652 2.5273-.5787 0-1.7247-.1262-2.3984-1.1074-.845-1.2362-.875-2.613-.875-4.2168V4.5339c.0188-2.7975.017-2.8531 1.7695-2.9844v-.707h-5.9297zm15.318 0v.707c.8775.075 1.1755.207 1.9043.877-.0187 1.3625-.0754 9.1745-.2617 10.051-.1487.7462-.56.766-1.6426.8222v.709h5.3711v-.709c-2.0138-.2037-2.162-.2787-2.162-2.4062v-6.828l5.2011 6.418c.5963.7274 1.1948 1.4744 1.791 2.2206l1.1738 1.4727h.7852l.1875-10.164c.0187-2.145.1477-2.444 1.584-2.4629V.843h-5.1855v.707c2.09.075 2.1453.1874 2.164 2.2773V9.72l-3.6737-4.5527C84.4354 2.7622 84.1922 2.408 83.091.843h-3.9531zm15.35 0v.707c1.5475.225 1.5477.2973 1.5664 3.041v7.0117c-.0187 1.3812-.2814 1.5285-1.5664 1.6973v.709h5.4668v-.709c-1.0237-.075-1.3977-.2612-1.4902-1.0625-.0375-.3925-.0566-1.8665-.0566-2.334V4.5906c0-2.8162-.0006-2.8898 1.547-3.041v-.707h-5.4669zm6.7207 0v.707c1.3238.2075 1.4351.5052 2.3301 3.0039l3.5996 9.7168h.709L111.857 4.7c1.0812-2.6088 1.2501-2.9629 2.5176-3.1504v-.707h-4.6074v.707c.82.0188 1.754.0553 1.754 1.0078 0 .335-.2239.9315-.3927 1.3965l-2.6836 6.9199-2.2949-6.6934c-.3537-1.1012-.4492-1.4185-.4492-1.791 0-.765.6914-.801 1.754-.8398v-.707h-6.2462zm47.889 0v.707c1.5488.225 1.5503.2973 1.5703 3.041v7.0117c-.02 1.3812-.2828 1.5285-1.5703 1.6973v.709h5.4668v-.709c-1.0238-.075-1.3977-.2612-1.4902-1.0625-.0375-.3925-.0566-1.8665-.0566-2.334V4.5906c0-2.8162-.0006-2.8898 1.547-3.041v-.707h-5.4669zm53.174.0937v.707c.9513.0926 1.3602.15 1.4902.7637.095.4113.1133 1.865.1133 2.3887l-.002 4.627c0 .3538-.019 1.9377-.039 2.254-.035 1.4337-.2045 1.566-1.5645 1.6972v.7266h5.4531v-.7266c-1.3612-.1312-1.5289-.2635-1.5664-1.6973l.008-3.7578h1.457c1.4712 0 2.254.1408 2.3477 1.6133h.6367V5.1864h-.6367c-.075 1.4188-.4646 1.5586-2.0684 1.5586h-1.7363l.002-4.5586c.4675-.0575.7284-.0762 1.5684-.0762 2.5738 0 3.403-.0117 3.748 2.0508h.6543l-.207-3.2246h-9.6582zm-7.3926.9297c1.0975-.0337 1.9337.6342 2.3574 1.088.9675 1.0324 1.4416 2.4887 1.4941 4.1874.0525 1.7138-.139 3.0251-1.0703 4.4551-.8137 1.235-1.8624 1.6057-2.6074 1.627-.7437 0-1.801-.3356-2.6523-1.5469-.9737-1.4-1.205-2.7024-1.205-4.4199 0-1.6975.427-3.173 1.3632-4.2344.4113-.465 1.2228-1.1562 2.3203-1.1562zm-63.66.1368c2.4238 0 3.1933 1.3216 3.1133 2.8516-.055 1.0538-1.188 2.2296-2.6855 2.2246-.3725 0-.8767-.0583-1.2305-.1308V2.079c.2613-.0563.4665-.0762.8028-.0762zm51.979 17.508c-.9875.7363-1.6367 1.074-3.9492 1.834l.3086.4805-5.3867 14.783c-.7625 2.085-1.4398 2.5107-3.5274 2.5957v1.0723h8.211V39.204c-1.2126-.0563-2.709-.1402-2.709-1.5527 0-.42.1126-.8172.2538-1.2422l.6172-1.7207h7.0234l.5977 2.0332c.1125.3662.2265.7905.2265 1.1855 0 1.1-1.0447 1.2119-2.3984 1.2969v1.0723h16.8516V39.204c-3.0474-.3113-3.2733-.4237-3.2733-3.6387v-10.332l7.871 9.709c.9038 1.1025 1.8046 2.2287 2.707 3.3574l1.7794 2.2305h1.1856l.2812-15.375c.0275-3.2425.226-3.6977 2.3984-3.7227v-1.0742h-7.8438v1.0742c3.16.1125 3.2447.2807 3.2734 3.4395v8.914l-5.5586-6.8847c-2.9338-3.6388-3.301-4.173-4.9648-6.543h-5.9805v1.0742c1.3262.1125 1.777.3092 2.877 1.3242-.0288 2.0588-.1133 13.878-.3945 15.207-.2046 1.0206-.7732 1.1364-2.082 1.2129-1.9434-.245-2.325-.8657-3.0898-3.1895l-4.4004-13.543c-.4513-1.41-.508-1.5786-.9043-2.9336zm-21.596.3379c-5.41 0-9.7266 4.1465-9.7266 10.521 0 5.2175 3.276 10.412 10.131 10.412 3.91 0 6.1192-1.3843 7.668-2.3418v-1.4961c.0513-3.78.051-4.2879 1.8535-4.4004v-1.0723h-8.0234v1.0723c2.21.2275 2.5526.2821 2.6426 2.8184.03.8775-.0512 1.3563-.4062 1.8926-.1025.1125-1.2463 1.6641-3.4551 1.6641-3.885 0-6.1426-3.9202-6.1426-8.4902 0-5.7288 2.8943-8.6621 6.373-8.6621 2.005 0 3.2755.8317 3.9355 1.4805 1.4975 1.4962 2.1087 2.8638 2.5137 4.0488l.8125-.1406-.1524-6.2363-1.039 1.1855c-1.625-.9875-3.582-2.256-6.9845-2.256zm-51.115.0293c-6.7262 0-10.023 5.3059-10.023 10.693 0 5.8125 3.8881 10.24 9.8906 10.24 5.495 0 7.6123-3.5273 8.4961-4.9648l-1.1855-.8984c-1.045 1.495-2.3522 3.4395-5.8359 3.4395-4.6112 0-6.9434-4.1191-6.9434-8.4941 0-5.1638 2.8423-8.0938 6.4336-8.0938 2.09 0 3.5641 1.2953 4.1816 1.9453 1.2862 1.41 1.7951 2.3393 2.1426 3.498l.8848-.172-.1074-6.037-1.3672 1.2422c-1.1512-.9-3.0289-2.3984-6.5664-2.3984zm-45.881.4805v1.0742c1.7762.025 2.172.168 2.172 2.1406 0 .7062.0013 1.6657-.0274 2.3145l-.2812 8.3496c-.03 1.1-.1137 2.7658-.17 3.3008-.1137 1.355-.735 1.581-2.3438 1.666v1.0723h6.9141v-1.0723c-2.1162-.1688-2.3418-.5362-2.3418-2.4824l.1485-11.713 6.3965 15.521h1.75l6.9668-15.32v10.018c-.0288 3.6962-.0278 3.8078-2.5391 3.9766v1.0723h8.7168v-1.0723c-1.58-.1413-2.1434-.4231-2.256-1.8906-.085-1.0162-.1132-2.7075-.1132-4.0625v-8.209c-.0275-3.1038-.0009-3.358 2.3691-3.498v-1.1855h-6.0645l-6.8262 15.121-6.209-15.121h-6.2617zm27.314 0v1.0742c2.3412.3375 2.3404.4494 2.3691 4.5957v10.6055c-.0287 2.09-.4216 2.3166-2.369 2.5703v1.0723h8.2694v-1.0723c-1.5513-.1125-2.1166-.397-2.2578-1.6094-.0562-.5913-.084-2.8211-.084-3.5273v-8.0391c0-4.2588.0006-4.3707 2.3419-4.5957v-1.0742h-8.2695zm28.402 0v1.0742c1.5512.1387 2.1141.3084 2.2266 1.4922.085.6212.086 1.9193.086 3.2168v8.3516c0 .7037.0001 1.409-.0274 2.1152 0 1.9162-.0289 2.3982-2.2852 2.5957v1.0723h8.5254v-1.0723c-2.5675-.2813-2.6236-.281-2.6523-4.4297v-3.6523c1.7212-.0863 3.0632-.1406 4.7832-.1406 1.6362 0 2.9493.0843 4.5293.1406v3.6523c0 1.44-.0003 2.2012-.0566 2.7637-.1712 1.385-.7064 1.4373-2.709 1.666v1.0723h8.6367v-1.0723c-1.4675-.1413-2.0599-.3373-2.2012-1.3848-.085-.5888-.1132-3.1006-.1132-3.8906v-8.4082c0-3.7788-.0006-3.8066 2.3144-4.088v-1.0741h-8.6367v1.0742c2.7088.2525 2.7369.3925 2.7656 4.0312v3.3457c-1.6938.0837-3.0341.1406-4.7266.1406-1.6638 0-2.8647-.0569-4.586-.1406v-2.752c0-1.1862.0288-2.6533.17-3.3008.1975-1.1.8174-1.1555 2.4824-1.3242v-1.0742h-8.5254zm22.705 0v1.0742c2.3438.3375 2.3443.4494 2.373 4.5957v10.6055c-.0288 2.09-.4242 2.3166-2.373 2.5703v1.0723h8.2793v-1.0723c-1.55-.1125-2.1126-.397-2.2539-1.6094-.0575-.5913-.0879-2.8211-.0879-3.5273v-8.0391c0-4.2588.0006-4.3707 2.3418-4.5957v-1.0742zm37.654 3.9297l2.795 8.2559h-5.7228l2.9277-8.256z"/></svg>