<svg xmlns="http://www.w3.org/2000/svg" height="800" width="1200" viewBox="-36.516225 -17.4378 316.47395 104.6268"><path d="M26.7135 68.8037c-4.586-3.4292-8.7051-7.4355-12.2435-11.9084l-.3115-.3947 12.8814-12.5351 12.9223 12.565-.314.3958c-3.5433 4.4593-7.67 8.4557-12.2658 11.8774l-.335.2495z" fill="#fff"/><path d="M27.0399 43.1866l-.7794.7571-12.1306 11.8041-.7223.7025.6255.7918c3.567 4.5114 7.7221 8.5512 12.3465 12.009l.6677.5001.669-.4977c4.6355-3.4527 8.7957-7.4838 12.3688-11.9779l.6292-.793-.7248-.705-12.1702-11.8339zm0 1.5589L39.21 56.5794c-3.531 4.4431-7.6266 8.3985-12.1615 11.7768-4.5834-3.4267-8.6555-7.4032-12.1393-11.8079L27.04 44.7455" fill="#fff"/><path d="M27.053 31.7566L9.1141 48.988l-.3537-.6304C5.5447 42.6348 3.2387 36.5174 1.9083 30.179l-.1415-.6727h50.5849l-.3153 1.5465c-1.3714 6.1025-3.6091 11.9369-6.656 17.3543l-.3537.6292z" fill="#fff"/><path d="M53.0389 28.9475H1.0788l.283 1.3466c1.3429 6.3942 3.6675 12.5624 6.9117 18.3385l.7062 1.2573 1.0413-1.0004 17.0316-16.3577 17.0665 16.4061 1.0412.9991.7062-1.2572c3.0742-5.4621 5.3318-11.3486 6.7132-17.497l.093-.468.0844-.422zm-1.3752 1.117c-.0608.2929-.113.5808-.175.8737-1.3838 6.1609-3.6314 11.9258-6.5952 17.1943L27.0526 30.9817 9.2478 48.084c-3.1524-5.6086-5.4609-11.6763-6.7926-18.0196h49.2085" fill="#fff"/><path d="M27.0421 45.5242L14.8569 57.3804l-.3847-.4852c-2.1347-2.6994-4.0609-5.5714-5.7227-8.5376l-.211-.3785L27.042 30.2065 45.5805 48.03l-.211.3748c-1.6743 2.9823-3.598 5.8493-5.7203 8.5214l-.3835.484z" fill="#fff"/><path d="M27.0421 29.432l-.7732.7434L8.4628 47.2791l-.623.5982.422.7534c1.6767 2.9898 3.619 5.8877 5.7735 8.612l.7683.9705.8874-.8638 11.351-11.0458 11.3908 11.0768.8862.8614.7682-.9693c2.1397-2.6945 4.0808-5.5875 5.77-8.5922l.4231-.7558-.623-.597-17.8409-17.1508zm0 1.5502L44.883 48.133a63.9568 63.9568 0 01-5.6706 8.4457L27.042 44.7447 14.9116 56.549c-2.1174-2.6758-4.0163-5.5055-5.6756-8.4643l17.806-17.1025" fill="#fff"/><path d="M27.0421 45.5242L14.8569 57.3804l-.3847-.4852c-2.1347-2.6994-4.0609-5.5714-5.7227-8.5376l-.211-.3785L27.042 30.2065 45.5805 48.03l-.211.3748c-1.6743 2.9823-3.598 5.8493-5.7203 8.5214l-.3835.484z" fill="#fff"/><path d="M27.0421 29.432l-.7732.7434L8.4628 47.2791l-.623.5982.422.7534c1.6767 2.9898 3.619 5.8877 5.7735 8.612l.7683.9705.8874-.8638 11.351-11.0458 11.3908 11.0768.8862.8614.7682-.9693c2.1397-2.6945 4.0808-5.5875 5.77-8.5922l.4231-.7558-.623-.597-17.8409-17.1508zm0 1.5502L44.883 48.133a63.9568 63.9568 0 01-5.6706 8.4457L27.042 44.7447 14.9116 56.549c-2.1174-2.6758-4.0163-5.5055-5.6756-8.4643l17.806-17.1025" fill="#fff"/><path d="M1.9892 30.638l-.0931-.4443C.6289 24.1383.2591 17.944.8002 11.783l.0596-.685.659.1998c2.085.633 4.2558.9544 6.4513.9544 7.6216 0 14.7542-3.9765 18.6153-10.3769l.4778-.7943.479.7943c3.855 6.4004 10.9863 10.3769 18.6092 10.3769 2.2017 0 4.3736-.3227 6.46-.9582l.6602-.201.0583.6876c.5287 6.1124.1477 12.3067-1.1319 18.413l-.0918.4443z" fill="#fff"/><path d="M27.0628 0l-.9569 1.5861C22.3466 7.8202 15.3964 11.6937 7.9697 11.6937a21.656 21.656 0 01-6.2887-.9308l-1.318-.3984-.1192 1.3701A63.453 63.453 0 001.3496 30.309l.1862.8874H52.56l.185-.8874c1.2907-6.1608 1.6742-12.411 1.1418-18.5768l-.1192-1.3752-1.3205.4021c-2.0317.6193-4.1502.9346-6.2949.9346-7.4292 0-14.377-3.8723-18.1325-10.1063zm0 2.1645c3.8375 6.368 10.9478 10.6462 19.0894 10.6462 2.3085 0 4.53-.345 6.6213-.9817.515 5.9672.1663 12.0995-1.122 18.2504H2.4432a62.3597 62.3597 0 01-1.0873-18.2467c2.0876.633 4.3092.978 6.6139.978 8.1404 0 15.252-4.2781 19.0931-10.6462" fill="#fff"/><path d="M14.9092 56.5483c3.4838 4.4047 7.5558 8.3812 12.1392 11.8079 4.535-3.3783 8.6307-7.3337 12.1616-11.7768l-12.1703-11.834z" fill="#f46f1b"/><path d="M9.2475 48.0843L27.0536 30.982l17.8397 17.1508c2.9637-5.2685 5.2126-11.0334 6.5964-17.1942.0608-.293.113-.5809.1738-.8738H2.455c1.3317 6.3433 3.6414 12.411 6.7925 18.0196" fill="#f46f1b"/><path d="M9.2366 48.0843c1.6594 2.96 3.557 5.7885 5.6743 8.4643l12.1318-11.804 12.169 11.8338a63.9568 63.9568 0 005.6706-8.4457L27.0427 30.982z" fill="#f46f1b"/><path d="M27.0421 43.9658L14.9686 55.7141c-1.8604-2.3953-3.5495-4.9234-5.0326-7.5273l17.106-16.4297 17.141 16.4781a63.7513 63.7513 0 01-5.0265 7.51z" fill="#231f20"/><path d="M27.0421 30.9817L9.236 48.0841c1.6593 2.96 3.5582 5.7885 5.6756 8.4643L27.042 44.7456l12.1703 11.8339a63.97 63.97 0 005.6706-8.447zm0 1.5502l16.4384 15.803a63.0248 63.0248 0 01-4.3836 6.5728L27.8215 43.9438l-.7794-.757-.7794.757-11.2345 10.9329c-1.6047-2.1111-3.0767-4.319-4.3898-6.589l16.4037-15.7558m25.7314-20.7036c-2.0912.638-4.3128.9817-6.6213.9817-8.1416 0-15.2519-4.2768-19.0894-10.6462C23.2216 8.5332 16.1101 12.81 7.9697 12.81c-2.3047 0-4.5263-.3438-6.6139-.9767a62.3513 62.3513 0 001.0873 18.2454h49.2085c1.2882-6.1496 1.637-12.2832 1.122-18.2504" fill="#231f20"/><path d="M39.1826 19.355v-2.0913h-1.2784V15.788l-1.3404-.3748h-.0968V14.161s-.4617.5536-2.584.5536c-2.008 0-3.1859-.6504-4.7844-.6504-1.5365 0-2.0069.8775-2.0069.8775v.5064h-.0533v-.5064s-.4803-.8775-2.0081-.8775c-1.5973 0-2.7764.6553-4.7832.6553-2.1223 0-2.4885-.5547-2.4885-.5547v1.318h-.088l-1.4534.3053v1.4757h-1.2833v2.0913h1.2833v3.3832h-1.2833v2.095h1.2833v2.6013s2.152.3364 4.1428.3364c2.3531 0 3.7109-.34 5.2387-.3711v.659s.6156.3066 1.436.3066c.829 0 1.488-.3066 1.488-.3066v-.659c1.5241.031 2.8819.371 5.2474.371 1.982 0 4.1341-.3363 4.1341-.3363v-2.6013h1.2784v-2.095h-1.2784V19.355z" fill="#fff"/><path d="M37.6528 27.2996c-.5473.0782-2.291.3053-3.9132.3053-2.3258 0-5.194-.3624-5.2226-.3661l-.2507-.0348v.7633c-.2209.0832-.7024.2321-1.2659.2321-.5523 0-1.004-.149-1.2138-.2271v-.7683l-.2507.0348c-.0285.0037-2.898.3661-5.2102.3661-1.627 0-3.372-.2271-3.9194-.3053V16.0254c.2048-.0397.8142-.17 1.1108-.2308v10.2118c.1092.2358.5759.777 2.7106.777l2.7019-.3538 2.0652-.2966c1.3788 0 1.812.7335 1.8306.7633l.0645-.0348h.3178l.0608.0348c.0186-.0298.443-.7633 1.812-.7633l2.064.2929 2.7242.3574c2.1632 0 2.7043-.5672 2.7577-.633l.0422-10.409c.283.0793.803.2233.9842.2754zm-19.6901-12.653c.3574.1787.999.366 2.265.366l2.7217-.3574 2.0628-.2966c1.3552 0 1.7871.7236 1.812.7633v11.1414c-.3302-.2743-.8837-.5759-1.8294-.5759l-2.1608.3053-2.6063.345c-1.9076 0-2.3047-.458-2.3085-.4616 0 0 .0385-10.47.0435-11.2295m9.3058.4753c.0186-.031.443-.7633 1.812-.7633l2.064.2917 2.7242.3574c1.3193 0 1.9907-.2048 2.363-.3835V25.989c-.0285-.057-.5634.3488-2.363.3488l-2.6275-.3488-2.1607-.3016c-.9358 0-1.4844.3016-1.812.5722zm9.4026.1527l.0062-1.6023-.3885.4108c-.005.0037-.4815.4803-2.4201.4803l-2.6275-.35-2.1607-.3003c-1.1853 0-1.776.484-2.0342.7769-.2594-.2929-.8551-.777-2.0341-.777l-2.1583.3054-2.6262.3487c-1.9076 0-2.3047-.458-2.3085-.4629l-.3959-.484-.0062.6156v1.0996l-1.5563.3276v12.025l.1886.0261c.0211.005 2.1906.3401 4.1763.3401 1.9585 0 4.283-.257 5.0166-.3438v.5449l.1216.0657c.0286.0137.6727.3277 1.5365.3277.8688 0 1.5539-.314 1.5824-.3277l.129-.0608v-.5498c.7336.0869 3.0582.3438 5.0278.3438 1.9783 0 4.1502-.3351 4.1713-.34l.1887-.0261V15.6767z" fill="#231f20"/><path d="M21.1272 16.6477c-.175.0136-.2879.1042-.34.2221l-.7161 1.5936s-.0348.026-.0571.026c-.0211 0-.0484-.026-.0658-.0744-.0174-.0559-.1043-.2792-.2917-.7149l-.232-.52c-.082-.1924-.1477-.319-.17-.3574-.0832-.144-.1875-.1577-.3004-.175-.0137-.0174-.0137-.0348-.0137-.0484 0-.0174 0-.0261.0087-.0472h.118c.1352 0 .2481.0087.3487.0087.1179 0 .314-.0137.4455-.0137h.0782c.0137.005.0174.031.0174.0435 0 .0087 0 .0397-.0087.0521-.0869.01-.283.005-.283.1266 0 .0273.0038.0745.0174.1055l.4716 1.117.3922-.9246a.5753.5753 0 00.0521-.2445c0-.1055-.0732-.1527-.2705-.175-.0037-.0137-.0124-.031-.0124-.0435 0-.0173.0087-.0434.0124-.057h.057c.0882 0 .175.0136.3712.0136.0347 0 .17-.0087.2358-.0087h.1352c.0087.0174.0174.026.0174.0434 0 .0125-.0087.0385-.0174.0522m1.995 1.7853c-.5722 0-.8812-.0124-.9606-.0124-.0608 0-.1998-.005-.2706-.005-.0782 0-.2618.0136-.463.0136l-.1128-.005c-.0087-.0173-.0087-.026-.0087-.0434 0-.0136 0-.0347.0037-.052.1526-.0137.2631-.0398.2892-.0621.0298-.0385.052-.118.0608-.288 0-.0869.0037-.1824.0037-.283 0-.144-.0037-.319-.0037-.5287v-.2966c-.005-.2048-.1055-.2048-.319-.2308-.0037-.0186-.0087-.036-.0087-.0484 0-.0137.005-.0435.0174-.0484h.1043c.0707 0 .2581.005.6155.005.3277 0 .6467.0037.7162.0037.0434 0 .17.005.1973.005.0434 0 .0608.0036.0608.0434l.026.4269c-.026.0137-.031.0186-.052.0186-.0174 0-.031 0-.0447-.005-.1254-.2134-.1874-.2569-.283-.3276-.0348-.026-.0869-.0434-.1663-.0472-.026 0-.0919-.005-.2532-.005-.1303 0-.196.005-.2135.005-.0223 0-.0173 0-.026.0733-.005.0446-.0087.1315-.0087.3797v.2445h.0645c.0832 0 .1663-.0086.2147-.021.0745-.0224.1527-.0745.1924-.1353.0174-.0224.0348-.1266.0434-.1577.0124-.0086.0348-.0124.0609-.0124a.0908.0908 0 01.0484.0124c-.005.0782-.0174.2222-.0174.4059 0 .0918.0087.2929.0087.376-.0174.0124-.0261.0124-.0534.0124-.0124 0-.0385 0-.0521-.0037-.0174-.1613-.0435-.2705-.1787-.3276-.0745-.031-.1353-.0397-.2098-.0397-.0397 0-.0869.005-.1266.0086v.494c0 .113.0087.1824.026.2222.0137.031.0572.0955.1143.1042.026.005.0744.0137.1737.0137h.2718c.0695 0 .17-.0087.2048-.031.0658-.0435.2395-.231.3016-.4059.026-.0087.0385-.0087.0558-.0087.0174 0 .0348.005.0571.0137v.4976c0 .0484-.031.0522-.1005.0522m2.2698-1.2922c-.0124 0-.031-.005-.052-.005-.0435-.1178-.0969-.222-.1403-.2792-.0782-.0955-.1527-.1613-.3488-.1824-.0434-.005-.149-.005-.1837-.005l-.0037.834c0 .1304 0 .2842.0037.5722.005.2172.1006.2172.3277.2482.0136.0223.0174.0397.0174.0521a.1004.1004 0 01-.0124.0484h-.0832c-.1316 0-.3934-.0087-.4766-.0087-.0558 0-.3438.0137-.4803.0137-.0124-.0223-.0174-.0223-.0174-.0534 0-.0124.005-.0298.0137-.0471.3016-.0224.3314-.0795.34-.175.0087-.0608.0087-.3103.0087-.5635v-.6888c0-.0881-.0037-.175-.0173-.232-.0571 0-.2396 0-.293.0223-.1526.0558-.2618.1836-.3785.4145-.0136.0037-.036.0037-.0484.0037-.0174 0-.0347-.0037-.0434-.0174v-.484c0-.0434.0037-.057.0558-.057.0447 0 .1142.0049.206.0049.0646 0 .3401.0037.6851.0037.4543 0 .7894-.0124.8775-.0124.0434 0 .0745 0 .0919.0174.0037.0086 0 .0434 0 .0695v.484c-.0087.0174-.031.0223-.0485.0223m-4.3563 2.9552c-.0174 0-.031-.005-.0571-.005-.0385-.1166-.0919-.222-.139-.2792-.0745-.0955-.1527-.1613-.35-.1824-.0435-.005-.1477-.005-.1825-.005l-.005.834c0 .1316 0 .283.005.5722.0038.2184.1043.2184.3314.2482a.0969.0969 0 01.0124.0521c0 .0174 0 .031-.0087.0484h-.0819c-.1353 0-.3971-.0086-.4766-.0086-.057 0-.345.0136-.484.0136-.0087-.0223-.0137-.0223-.0137-.0534 0-.0124.005-.0297.0087-.0471.3016-.0224.3327-.0794.345-.175.005-.0608.005-.3103.005-.5635v-.69c0-.0869 0-.1738-.0136-.2309-.0571 0-.2445 0-.2967.0224-.1526.0558-.2581.1824-.3748.4145-.0186.0037-.0397.0037-.0533.0037a.0545.0545 0 01-.0435-.0174v-.484c0-.0434.0087-.057.0571-.057s.113.0049.2048.0049c.0707 0 .345.0037.69.0037.4493 0 .7894-.0124.8726-.0124.0484 0 .0794 0 .0918.0174.0087.0087.005.0434.005.0695v.484a.0577.0577 0 01-.0484.0223m2.1563 1.2922c-.5671 0-.8824-.0137-.9556-.0137-.062 0-.201-.0037-.2755-.0037-.0745 0-.2619.0124-.458.0124l-.1142-.0037c-.0086-.0174-.0124-.026-.0124-.0434 0-.0137 0-.0348.0087-.0522.1527-.0136.2619-.0397.283-.062.0347-.0385.0534-.118.062-.288.0038-.0868.0087-.1836.0087-.283 0-.1439-.005-.3189-.005-.5286 0-.149-.0037-.2358-.0037-.2967-.005-.2047-.1005-.2047-.3152-.232a.1111.1111 0 01-.0124-.0472c0-.0137.0087-.0447.0211-.0484h.1005c.0745 0 .2582.0037.6156.0037.3326 0 .6466.005.721.005.0386 0 .1701.005.1912.005.0484 0 .0658.0037.0658.0434l.0223.4282c-.0223.0124-.031.0173-.052.0173-.0137 0-.0274 0-.0448-.005-.1216-.2134-.1824-.258-.283-.3276-.0347-.026-.083-.0434-.1625-.0471-.026 0-.0906-.005-.257-.005-.1265 0-.196.005-.2097.005-.026 0-.021 0-.0298.0732 0 .0434-.005.1315-.005.3798v.2445h.0609c.0881 0 .17-.0087.2147-.0211.0782-.0224.1527-.0745.196-.1353.0125-.0224.0348-.1266.0398-.1576a.137.137 0 01.0608-.0137c.0224 0 .0397.005.0521.0137-.0037.0781-.021.2221-.021.4058 0 .0918.0124.2929.0124.376-.0211.0125-.0261.0125-.0522.0125-.0173 0-.0397 0-.057-.0038-.0174-.1625-.0398-.2705-.1788-.3276-.0744-.031-.1353-.0397-.2048-.0397-.0397 0-.088.005-.1266.0087v.494c0 .1129.0087.1824.0211.222.0174.0311.0609.0956.1142.1043.026.005.0782.0137.1738.0137h.2755c.0695 0 .1663-.0087.201-.031.0696-.0435.2446-.2309.3054-.4059.021-.0087.0397-.0087.057-.0087.0125 0 .0348.005.0522.0137v.4977c0 .0471-.031.052-.1005.052m1.3269.0436c-.1577 0-.3314-.0608-.437-.113a.1816.1816 0 00-.0694-.0186c-.0211 0-.0782.031-.1403.0745-.0434 0-.0955-.0211-.108-.0559 0-.0397.0348-.1576.0348-.232 0-.0435-.0137-.257-.0174-.3054.0174-.026.0521-.0397.082-.0397h.031c.0397.0795.1179.2842.175.3674.1179.1353.2916.196.4182.196.1403 0 .2445-.026.3066-.0918.0868-.0831.1042-.1352.1042-.227 0-.0696-.0124-.1267-.0521-.1701-.0484-.0608-.0881-.0869-.1961-.139-.0832-.0397-.376-.1142-.4803-.1713-.1316-.0608-.1973-.113-.2619-.1824-.0794-.1006-.1092-.2358-.1092-.345 0-.3016.2395-.5288.5796-.5288.1278 0 .3016.0137.4505.1316a1.1327 1.1327 0 01.1092-.1092c.0559 0 .0956.0298.1006.0521-.005.0434-.031.1613-.031.2581 0 .0472.031.2483.031.2793-.0224.0087-.0447.026-.0745.026-.0087 0-.0223-.005-.0348-.0086-.0533-.0919-.1005-.2445-.1576-.3277-.0869-.1179-.2097-.1613-.3748-.1613-.1886 0-.3413.1179-.3413.2792 0 .1564.1266.2309.232.2793a4.346 4.346 0 00.283.1005c.1403.0484.2446.0832.3017.113.2184.1141.3102.2755.3102.4976 0 .35-.3152.5722-.664.5722m-2.7237 2.916c-.5721 0-.8824-.0124-.9606-.0124-.0608 0-.201-.005-.2706-.005-.0782 0-.2618.0136-.4629.0136l-.113-.005c-.0086-.0173-.0086-.026-.0086-.0434 0-.0136 0-.0347.0037-.052.1527-.0137.2619-.0398.288-.0621.031-.0385.0533-.118.062-.288 0-.0868.0037-.1824.0037-.283 0-.144-.0037-.319-.0037-.5287v-.2966c-.005-.2048-.1055-.2048-.319-.2308a.211.211 0 01-.0087-.0484c0-.0137.0038-.0435.0174-.0484h.1043c.0707 0 .2581.005.6156.005.3276 0 .6466.0037.716.0037.0435 0 .1701.005.1962.005.0446 0 .062.0036.062.0434l.026.4281c-.026.0125-.031.0174-.052.0174-.0174 0-.031 0-.0447-.005-.1266-.2134-.1874-.2569-.283-.3276-.0347-.026-.0881-.0434-.1663-.0472-.026 0-.0918-.005-.2532-.005-.1303 0-.196.005-.2135.005-.0223 0-.0173 0-.026.0733-.005.0446-.0087.1315-.0087.3797v.2445h.0645c.0832 0 .1663-.0086.2147-.021.0745-.0224.1527-.0745.1912-.1353.0173-.0224.036-.1266.0447-.1577.0124-.0086.0347-.0124.0608-.0124a.0908.0908 0 01.0484.0124c-.005.0782-.0174.2222-.0174.4059 0 .0918.0087.2929.0087.376-.0174.0124-.0273.0124-.0534.0124-.0124 0-.0385 0-.0521-.0037-.0174-.1613-.0435-.2705-.1787-.3276-.0745-.031-.1353-.0397-.2098-.0397-.0397 0-.0869.005-.1266.0086v.494c0 .113.0087.1837.026.2222.0137.031.0572.0955.1143.1042.026.005.0732.0137.1737.0137h.2706c.0707 0 .1713-.0087.206-.031.0645-.0435.2395-.231.3004-.4059.026-.0087.0397-.0087.057-.0087.0174 0 .0348.005.0571.0137v.4976c0 .0484-.031.0522-.1005.0522m2.7499-1.794c-.1924.0087-.3574.1142-.3574.4195l-.005.9693c0 .0385.0174.314.0174.4183-.0298.0174-.0608.031-.0782.031-.0087 0-.026-.0136-.0484-.031l-1.3317-1.4323.0136.293.005.5287c0 .0384.0087.139.0174.2134.0087.118.0434.1576.0956.201.0657.0572.175.0745.2531.0832a.0798.0798 0 01.0124.0435.0987.0987 0 01-.0173.0471h-.144c-.1216 0-.2172-.0037-.3438-.0037-.0831 0-.201.0087-.2842.0087h-.0608c-.005-.0137-.005-.0347-.005-.0434s0-.0261.0087-.0484c.0968-.0087.2445-.0522.3016-.1304.0211-.0484.031-.1352.031-.227v-.6765c0-.1092-.005-.1663-.0099-.2705-.0037-.0882-.0211-.154-.0645-.206-.005-.0125-.0484-.056-.0919-.1006-.0434-.0347-.149-.0645-.2147-.0918a.1309.1309 0 01-.0124-.0435c0-.0124.0037-.0347.0124-.0471h.0484c.0397 0 .2445.0087.4021.0087h.0919c.0174.0086.0471.026.0558.0384l.9867 1.0785c.0745.0832.17.1924.2234.262v-.777c0-.1043-.005-.1787-.0087-.2184-.0087-.0782-.0273-.1477-.057-.2011-.0311-.0472-.2148-.0732-.3104-.0956-.0086-.0173-.0086-.0397-.0086-.057 0-.0087 0-.0212.005-.0385h.0558c.0918 0 .2407.0124.3326.0124.2271 0 .2966-.0087.4096-.0087h.0744c.0087.0174.0087.0347.0087.0484 0 .0087 0 .0298-.0087.0434m6.2204-5.9147c-.1874.0086-.3574.1129-.3574.4194v.968c0 .0398.0124.3153.0124.4196-.026.0174-.0608.031-.0745.031-.0124 0-.026-.0136-.052-.031l-1.3318-1.431.0186.2916.0037.5288c0 .0384.0087.139.0137.2134.0124.118.0472.1576.0956.201.0695.0572.1787.0745.2531.0832a.0798.0798 0 01.0125.0435.1529.1529 0 01-.0125.0471h-.1489c-.1179 0-.2135-.0037-.3438-.0037-.0831 0-.1973.0087-.2805.0087h-.0608a.2426.2426 0 01-.0087-.0434c0-.0087 0-.0261.0137-.0484.0918-.0087.2395-.0522.2966-.1304.026-.0484.031-.1352.031-.227v-.6765c0-.1092 0-.1663-.005-.2705-.0036-.0882-.026-.154-.0657-.206-.0087-.0125-.0484-.056-.0956-.1006-.0397-.0347-.1489-.0645-.2147-.0918-.0037-.0174-.0087-.0385-.0087-.0435a.21.21 0 01.0087-.0471h.0534c.0347 0 .2395.0087.3971.0087h.0919c.0174.0086.0471.026.0608.0384l.9867 1.0785c.0744.0832.17.1924.2221.262v-.777c0-.1043-.0087-.1787-.0124-.2184a.479.479 0 00-.057-.2011c-.0311-.0472-.2148-.0732-.3054-.0956a.1374.1374 0 01-.0136-.057c0-.0087 0-.0212.0087-.0385h.057c.0919 0 .2396.0124.3314.0124.2222 0 .2966-.0087.4108-.0087h.0695a.1152.1152 0 01.0137.0484.1015.1015 0 01-.0137.0434m1.6545.1791c-.0918-.1217-.2047-.1961-.3748-.1961-.1576 0-.2581.0695-.35.196-.1129.144-.175.3749-.175.6678 0 .2879.0621.515.1664.659.0955.1402.2047.2097.371.2097.2011 0 .319-.0955.4109-.2581.0831-.144.1216-.3438.1216-.6057 0-.3103-.0608-.5287-.17-.6727m.3053 1.379c-.1825.1786-.437.2841-.6727.2841-.2222 0-.479-.0955-.659-.2705-.1961-.1874-.283-.4406-.283-.7199 0-.2668.0869-.52.283-.7124.2097-.201.4368-.283.664-.283.1663 0 .319.0435.4976.139.293.1875.463.4977.463.8378 0 .2668-.1055.5337-.293.7248m2.6803-1.5491c-.17.0136-.283.1042-.3363.2221l-.7161 1.5936s-.0348.026-.0559.026c-.0223 0-.052-.026-.0657-.0744-.0174-.0559-.1055-.2792-.2967-.7149l-.227-.52c-.0832-.1924-.149-.319-.1701-.3574-.0881-.144-.1887-.1577-.3016-.175-.0174-.0174-.0174-.0348-.0174-.0484 0-.0174 0-.0261.0124-.0472h.118c.1315 0 .2444.0087.345.0087.1179 0 .3152-.0137.4505-.0137h.0732c.0186.005.0224.031.0224.0435 0 .0087 0 .0397-.0087.0521-.0919.01-.2843.005-.2843.1266 0 .0273 0 .0745.0174.1055l.468 1.117.397-.9246a.6424.6424 0 00.0485-.2445c0-.1055-.0745-.1527-.2718-.175-.0037-.0137-.0087-.031-.0087-.0435 0-.0173.005-.0434.0087-.057h.057c.087 0 .175.0136.3749.0136.031 0 .1713-.0087.2358-.0087h.1365c.0087.0174.0124.026.0124.0434 0 .0125-.0037.0385-.0174.0522M30.15 20.096c-.0174 0-.0298-.005-.0571-.005-.0385-.1166-.0919-.222-.139-.2792-.0745-.0955-.1527-.1613-.35-.1824-.0435-.005-.1477-.005-.1825-.005l-.005.834c0 .1316 0 .283.005.5722.0037.2184.1043.2184.3314.2482.0136.0224.0136.0397.0136.0521 0 .0174 0 .031-.0086.0484h-.0832c-.1353 0-.3972-.0086-.4766-.0086-.0558 0-.3438.0136-.484.0136-.0087-.0223-.0137-.0223-.0137-.0534 0-.0124.005-.0297.0087-.0471.3016-.0224.3326-.0794.345-.175.005-.0608.005-.3103.005-.5635v-.69c0-.0869 0-.1738-.0136-.2309-.0571 0-.2445 0-.2967.0224-.1526.0558-.2569.1824-.3748.4145-.0174.0037-.0397.0037-.0533.0037a.0545.0545 0 01-.0435-.0174v-.484c0-.0434.0087-.057.0571-.057s.113.0049.2048.0049c.0707 0 .345.0037.69.0037.4493 0 .7894-.0124.8725-.0124.0484 0 .0795 0 .0919.0174.0087.0087.005.0434.005.0695v.484a.0577.0577 0 01-.0485.0223m1.0698-.205h-.005c-.0385.0745-.108.2358-.1353.3053-.1005.2445-.1353.3277-.1526.3624h.5634c-.0434-.113-.1874-.458-.2705-.6677m1.1914 1.4968h-.1477c-.0968 0-.206-.0124-.319-.0124-.1787 0-.4058.0124-.4939.0124-.0087-.0087-.0124-.026-.0124-.0472 0-.0136.0037-.031.0087-.0447.1837-.0086.2569-.0384.2569-.1129 0-.031 0-.0918-.0559-.2445-.057-.1402-.088-.201-.1005-.2358-.0087-.0124-.0136-.0211-.0521-.0211h-.5945c-.0397.0472-.0869.1787-.139.3612-.0137.0484-.0137.0918-.0137.1092 0 .062.0571.1315.2669.1353a.0985.0985 0 01.0124.0533c0 .0124 0 .026-.0037.0435h-.0534c-.139 0-.1787-.0087-.3264-.0087-.0968 0-.3277.0087-.4059.0087-.005-.0174-.0086-.0224-.0086-.0397 0-.0125 0-.0261.0086-.0485.113-.026.2172-.0558.2706-.139.0298-.0434.1303-.2184.2395-.489.1043-.2531.2309-.5721.288-.7024.0794-.1663.1055-.2184.1315-.2755a3.1176 3.1176 0 01.1006-.1961c.0173-.0224.0558-.0348.0732-.0348.031 0 .0707.0174.0831.0385.0174.0347.0398.0707.0435.0918.1092.2619.1973.494.3326.8167.0695.1613.1042.2668.1787.4368.0521.1043.0832.1875.1353.283.0695.144.1837.144.2966.175.005.0137.0174.026.0174.0435 0 .0173-.0087.026-.0174.0434m2.9159.0004l-.7632-.0087h-.2097a.138.138 0 01-.0137-.0484c0-.026.005-.0298.0174-.0472.0397-.005.1402 0 .1874-.0173.0794-.036.1104-.1142.1104-.2272v-1.3578h-.005l-.402.8813c-.0435.0968-.0956.201-.139.3053-.0919.206-.1403.345-.1664.4281-.0124.0348-.0434.0348-.0608.0348-.026 0-.0434-.0087-.057-.0521-.0522-.113-.087-.1874-.1043-.2358l-.6292-1.3839h-.0125v.3537l.0125.8825c0 .2705.1402.3971.3537.3971a.135.135 0 01.0173.0435.1111.1111 0 01-.0124.0471c-.0136 0-.057.005-.0968.005-.026 0-.165-.0137-.3661-.0137-.057 0-.175.005-.2668.005h-.1266c-.0038-.0174-.0087-.031-.0087-.0484 0-.0037.005-.026.0087-.0385.0533-.0136.2358-.057.2755-.0968.0397-.0385.0745-.1179.0745-.3053v-.9693c-.005-.1527-.0224-.2135-.0968-.2656-.0298-.0223-.1477-.0347-.2483-.0484a.1355.1355 0 01-.0136-.0521c0-.0137.005-.031.0136-.0534.0745 0 .2048.01.3364.01h.458c.0173.0123.026.021.0397.0471l.5622 1.2746.1005-.2532c.0881-.2048.2147-.515.3934-.8464.0385-.0745.087-.17.113-.2184l.716-.0137c.0088.0186.0175.031.0175.0484a.1004.1004 0 01-.0124.0484c-.0795.0137-.2148.0137-.2805.1216-.0211.036-.0348.0708-.0348.2234v.9123c0 .3487.0881.3835.1266.4108.0223.0124.1316.026.1924.026.0087.0174.0136.0298.0136.0472 0 .026-.0087.031-.0136.0484m-5.2206 1.6675c-.0174 0-.031-.005-.057-.005-.0386-.1166-.092-.222-.139-.2792-.0746-.0955-.1527-.1613-.35-.1824-.0435-.005-.1478-.005-.1825-.005l-.005.834c0 .1304 0 .283.005.5722.0037.2172.1042.2172.3313.2482a.0969.0969 0 01.0125.0521c0 .0174 0 .031-.0087.0484h-.082c-.1352 0-.397-.0087-.4765-.0087-.0571 0-.345.0137-.484.0137-.0087-.0223-.0137-.0223-.0137-.0534 0-.0124.005-.0298.0087-.0471.3016-.0224.3326-.0795.345-.175.005-.0608.005-.3103.005-.5635v-.6888c0-.0881 0-.175-.0137-.232-.057 0-.2445 0-.2966.0223-.1527.0558-.2582.1824-.3748.4145-.0186.0037-.0397.0037-.0534.0037a.0545.0545 0 01-.0434-.0174v-.484c0-.0434.0087-.057.057-.057.0485 0 .113.0049.2049.0049.0695 0 .345.0037.69.0037.4493 0 .7893-.0124.8725-.0124.0484 0 .0794 0 .0918.0174.0087.0086.005.0434.005.0695v.484a.0577.0577 0 01-.0484.0223m2.344-.4932c-.17.0124-.2843.1042-.3364.2221l-.7161 1.5936s-.0348.026-.0559.026c-.0223 0-.0533-.026-.0657-.0744-.0174-.0559-.1043-.2792-.2967-.7149l-.227-.52c-.0832-.1924-.149-.319-.1701-.3574-.0881-.144-.1887-.1577-.3016-.175-.0174-.0174-.0174-.0348-.0174-.0484 0-.0174 0-.0261.0137-.0472h.1166c.1316 0 .2445.0087.345.0087.118 0 .314-.0137.4506-.0137h.0732c.0174.005.0224.031.0224.0435 0 .0087 0 .0397-.0087.0521-.0919.0087-.2842.005-.2842.1266 0 .0273 0 .0745.0173.1055l.468 1.117.397-.9246a.6349.6349 0 00.0472-.2445c0-.1055-.0732-.154-.2705-.175-.0037-.0137-.0087-.031-.0087-.0435 0-.0173.005-.0434.0087-.057h.057c.0882 0 .175.0136.3761.0136.0298 0 .17-.0087.2346-.0087h.1365c.0087.0174.0124.026.0124.0434 0 .0125-.0037.0385-.0173.0522m2.9158 1.7852l-.7596-.0087h-.2134c-.0087-.0174-.0087-.0397-.0087-.0484 0-.026 0-.0298.0124-.0472.0447-.005.1402 0 .1924-.0174.0744-.036.1042-.1141.1042-.227v-1.101s.005-.1998.005-.2568h-.0087l-.3972.8811c-.0484.0968-.0955.2011-.144.3066-.088.2048-.1402.3438-.1662.427-.0087.0347-.0385.0347-.0608.0347-.0224 0-.0398-.0087-.0571-.0521-.0472-.113-.0832-.1875-.1006-.2359l-.633-1.3838h-.0123v.3537l.0124.8825c.005.2705.1402.3971.3587.3971.0086.0124.0124.0385.0124.0434 0 .0125 0 .0298-.0087.0484-.0174 0-.0571.0038-.1006.0038-.026 0-.1613-.0124-.3624-.0124-.0608 0-.1787.0037-.2656.0037h-.1265c-.0087-.0174-.0137-.031-.0137-.0484 0-.0037.005-.026.0137-.0385.0484-.0136.2358-.057.2755-.0968.0347-.0385.0695-.1179.0695-.3053l.0037-.4456-.0037-.5237c-.005-.1527-.0174-.2135-.0968-.2656-.0298-.0223-.1477-.0348-.2445-.0484a.0992.0992 0 01-.0174-.0521c0-.0137.005-.031.0174-.0522.0707 0 .206.0087.3326.0087h.4617c.0136.0124.0273.0211.036.0472l.5622 1.2746.1055-.2532c.0831-.2048.2135-.515.3922-.8464.0347-.0745.0881-.17.1142-.2185l.7111-.0124c.0087.0174.0224.0298.0224.0472s-.0087.031-.0174.0484c-.0745.0137-.2098.0137-.2755.1216-.0224.036-.0398.0708-.0398.2234v.9122c0 .3488.0882.3835.1316.4108.0174.0125.1266.0261.1874.0261.0137.0174.0174.0298.0174.0472 0 .026-.0087.031-.0174.0484" fill="#231f20"/><path d="M78.8708 19.5472c0-1.8294-1.0475-3.536-2.6063-4.2384-.803-.345-2.2166-.5634-4.36-.5634-1.8778 0-4.8018.1489-6.09.1489-.9036 0-2.2676-.1005-3.0234-.1005-.0732.1216-.1241.2916-.1241.3884 0 .1006 0 .3661.0744.489.463.1477 1.2176.2656 1.7066.3922.4132.3624.5113.6814.6577 1.3888.072.8502.1217 1.925.1217 3.7754 0 5.142-.0236 7.8438-.098 8.4296-.0956.7335-.5834 1.488-1.3889 1.7276-.366.0745-.9035.1974-1.4111.2445a2.536 2.536 0 00-.0509.5114c0 .196.026.2221.072.345.7794 0 3.0717-.1005 3.9492-.1005 2.1694 0 4.386.1005 5.2858.1005h.6107c.0744-.1005.0744-.2706.0744-.3885 0-.149 0-.345-.0496-.4418-.7323-.0956-1.827-.2433-2.2898-.7807-.2445-.2879-.489-.7074-.489-1.436l-.0745-5.3602c1.462.0955 3.0233.144 3.876.144 1.1207 0 2.0701-.1925 2.8247-.437 1.7301-.654 2.8024-2.3655 2.8024-4.2383m-4.3587-.1005c0 1.2435-.4406 2.3394-1.2424 3.0469-.5126.4145-1.318.659-2.5356.659-.5113 0-.9035-.0211-1.0474-.0484-.1949-.026-.319-.0472-.319-.1738l.026-7.1376c.293-.021.7075-.1216 1.415-.1216 1.6555 0 2.6795.4145 3.166 1.4397.3388.6553.5374 1.4844.5374 2.3358m26.459 12.6245c0-.123-.0471-.4158-.1216-.5114-.242 0-1.2398-.0484-1.606-.319-.1228-.144-.3164-.4356-.4157-.6106-.3178-1.117-.6802-1.8728-1.0475-2.7974-.5126-1.2188-1.2175-2.3668-1.8021-2.903-.221-.1923-.9755-.5113-1.8294-.8042-.3885-.144-.705-.2656-.9978-.3885.3648-.0732.5349-.1005.9978-.144 1.8046-.222 2.2179-.536 2.6795-.9034.9768-.7335 1.5105-1.8505 1.5105-3.1686 0-1.9733-1.266-3.8722-3.0445-4.4357-.587-.17-1.6295-.2656-2.9215-.2656-1.8294 0-4.3873.17-5.6048.17-.3674 0-2.4884-.0484-3.3398-.0484-.3674 0-1.292-.0471-1.436-.0471-.0745.17-.1229.3611-.1229.463 0 .0955.0249.34.0484.4355.4146.0484 1.1704.144 1.5601.2185.5833.4406.7794.7819 1.0214 1.318.1254.782.1465 2.7764.1465 6.2118 0 2.4884.026 5.3603-.0956 6.2899-.072.6069-.2929 1.3366-1.0003 1.6283-.314.0521-.901.149-1.3876.17-.0744.1229-.1228.3674-.1228.489 0 .0745.0484.2669.0968.3885.345 0 4.072-.0695 4.849-.0695 1.5588 0 2.8768.0695 4.2656.0695.0472-.0956.0956-.2656.0956-.3661 0-.1663-.0484-.4108-.0956-.5114-.489-.0471-1.0959-.1911-1.364-.2445-.6093-.288-1.05-.8725-1.05-1.7276l-.0223-5.6272c.1924-.026.437-.026.633-.026.314 0 .6814.0521 1.2895.3885.9023.515 1.3429.8824 1.9274 1.781.7795 1.2175 1.292 3.4576 1.5353 5.2386.072.5101.2656.9507.731.9991.1936.026 1.4856.0745 2.4115.0745h3.485c.0968-.1005.144-.293.144-.4145m-7.0644-12.7425c0 1.5105-1.024 3.2393-2.2154 3.5322-.489.1217-1.1008.1961-1.9994.1961-.2445 0-.6106 0-.9035-.0533l-.0236-2.069V16.452c0-.2917.072-.463.1452-.5362.072-.0745.5138-.144 1.0264-.144 1.8989 0 2.728.1651 3.4093 1.3131.3885.659.561 1.4149.561 2.244m19.54 12.7163c0-.1229-.0261-.3897-.072-.4853-.3662-.026-1.364-.1216-1.8021-.2184-.391-.4667-.6616-.9991-.8303-1.8766-.0236-1.1703-.0497-3.5843-.0497-5.8493v-5.9933c0-.659.268-1.1703.4406-1.318.463-.4369 1.3888-.5325 2.1695-.633.0484-.0968.072-.3624.072-.463 0-.1439-.072-.3412-.1217-.3884h-.7074c-1.024 0-3.4118.1216-4.2409.1216-.51 0-2.898-.0744-3.9703-.0955h-.5336c-.0745.0955-.1229.1924-.1229.4095 0 .1018.0211.345.0484.463 1.1952.1005 1.7276.2184 1.9001.345.293.2184.705.7558.8055 2.069.0223.4629.046 1.4632.0695 3.7071.0273 1.2175.0509 2.919.0509 4.334 0 .7074-.0509 2.2923-.0745 3.1424-.0459.5858-.17 1.1443-.3376 1.4633-.2929.2445-.587.68-2.3667.803-.0472.0955-.0745.4145-.0745.515 0 .1911.0509.288.0509.4096h.4145c.9755 0 3.4118-.1216 4.6777-.1216.3662 0 2.898.0744 3.7035.0744h.8055c.0695-.1228.0955-.319.0955-.4145M137.539 15.16c0-.0956-.0273-.2656-.0744-.34h-.5635c-1.2175 0-1.9945.047-4.19.047-.7558 0-1.8778-.047-2.1434-.047h-.633c-.0744.047-.1004.3189-.1004.4144 0 .123.026.314.1265.4146.3885.1228 1.8729.288 2.5096.7074.4368.5101.6292 1.5315.7024 2.4835.0273.3624.0534.7285.0534 1.7288v5.0935c0 .5858-.026.777-.0534 1.0487-.4095-.4629-.999-1.3404-1.9721-2.4363l-8.128-9.019c-.0744-.0956-.2184-.2172-.3673-.314-.1937 0-.5362-.0261-.7286-.0261-1.5625 0-4.3873-.0695-4.8018-.0695-.0484.0955-.0956.2395-.0956.3363 0 .0521.0472.3922.0695.4667.3662.0955 1.1716.2184 1.8294.9258.3922.4357 1.0736 1.0475 1.292 1.5365.0732.17.098.4357.098.777 0 1.2659-.072 3.0469-.072 4.7484v4.9508c0 .803-.0744 1.436-.1489 1.8505-.51.5374-1.2895.9258-2.5579 1.2398-.0484.1266-.0955.319-.0955.4406 0 .0745.021.319.072.3413h.4629c.4865 0 1.6084-.0744 2.3395-.0744 1.071 0 1.8008.0744 2.7999.0744h1.4546c.0955-.0223.1216-.319.1216-.4145 0-.0968-.026-.293-.0732-.3897-.8465-.2172-2.0863-.4145-2.9154-1.5104-.1675-.3662-.3165-2.1682-.3165-3.0246 0-.777-.026-1.8455-.026-3.2864 0-1.925.026-3.6055.0508-4.4568.1453.17.3165.3884.4382.5324l11.2493 12.6506c.1216.1179.5585.144.6814.144.1216 0 .196 0 .2916-.0485.0484-.1229.2185-.515.2185-1.0959 0-.7074-.026-1.4409-.026-1.802V19.5955c0-3.047 1.4408-3.8983 3.1213-3.9728.0732-.1229.1005-.34.1005-.463m18.9678 13.9116c-.0732-.2184-.2706-.5845-.829-.5845-.0497 0-.1242.026-.17.026-1.4646 2.0739-3.073 2.8508-4.9 2.8508-2.5343 0-4.3364-1.7065-4.9222-3.217-.3177-.8041-.7546-2.5578-.7546-4.4356 0-1.776.2681-3.217.731-4.2644 1.0711-2.8248 2.63-3.7023 4.5326-3.7023 1.5848 0 2.8992.9048 3.8983 2.1918.4145.5635.8514 1.6594 1.2398 2.9514.1005.021.319.0695.5374.0695.1465 0 .489-.118.5846-.2185-.0211-.2656-.2656-2.1433-.2656-2.7279 0-.7285.1936-1.925.1936-2.3879-.1465-.149-.633-.2445-.9495-.2656-.366.2656-.489.5796-.829.9991-1.364-.978-2.6324-1.7326-5.4087-1.7326-2.558 0-4.5834.8762-6.1174 2.414-1.6805 1.6544-2.6064 3.9454-2.6064 6.8707 0 3.1164 1.3156 5.678 3.4354 7.2853 1.3429.973 3.315 1.632 5.6768 1.632 2.9725 0 5.142-1.122 6.2378-2.605.4369-.5896.4865-.7348.6851-1.1493m20.6122-.8514c0-.34 0-.4877-.026-.7062-.1216-.0744-.17-.0744-.3661-.0744-.17 0-.3624 0-.5374.0484-.8241 1.8765-2.0206 3.3385-2.6771 3.727-.3649.2234-.9259.2706-1.8294.2706h-1.9957c-.7782 0-1.39-.0733-1.6085-.1217-.366-.0744-.7545-.659-.9246-1.0475-.1725-.4145-.2705-.4145-.2705-1.5364v-5.3343h.9035c.242 0 .829.0472 1.4844.34.6106.2706.855.633 1.097 1.0264.221.3351.365 1.6805.4134 2.0206.124.0695.4406.0955.6367.0955.1923 0 .314-.026.484-.1216 0-.659-.1452-2.4363-.1452-3.413 0-1.2188.17-2.8993.242-3.7718-.0968-.0533-.242-.1005-.4853-.1005-.17 0-.4877 0-.633.0745-.0732.34-.3425 1.3615-.3921 1.436-.3624.6106-1.0004 1.0735-1.6544 1.2696-.4394.1179-1.0736.1924-1.4149.1924h-.51v-2.265c0-2.3408.047-3.0954.072-3.536.0235-.2879.0719-.6069.098-.8253.2184-.026.34-.0484 1.462-.0484 1.4099 0 2.0714.0223 2.2898.0223.6826.0522 1.194.1961 1.56.489.926.7075 1.6334 1.8245 2.3383 3.0209.1465.0472.391.0472.5126.0472.1464 0 .17-.0472.3661-.144 0-1.4881-.0993-3.413-.1477-4.02-.026-.2444-.072-.319-.5585-.319-.1973 0-1.122-.0483-2.0962-.0483-1.3875 0-1.951.0273-4.072.0273-1.1443 0-3.5074.021-4.5065.021-1.4608 0-2.7044-.0483-3.3373-.0483h-.8303c-.0732.0968-.1192.2929-.1192.3884 0 .123.046.3935.1192.489.2929.0968 1.4384.0745 1.781.2669.3413.2929.6553.4145.8762 1.5849.0496.515.0732 1.925.0732 3.0469v5.019c0 1.0214-.0236 2.5108-.0496 3.1177-.0484.9506-.3885 2.095-.5325 2.317-.2234.1714-1.2225.3153-2.1955.3625-.072.149-.1229.3934-.1229.5374 0 .144.051.319.123.4406h.803c.7806 0 3.655-.0745 4.3152-.0745.6082 0 1.7785.0484 3.191.0484.778 0 3.0704.149 7.9926.149.1936 0 .412.021.6566-.0534.0744-.1216.0744-.17.098-.3885.0496-.489.0496-1.925.0496-3.8983m21.0008-7.9182v-4.9719c0-.3661-.144-.463-.5101-.463-.731 0-4.5785.0969-8.4768.0969-3.0233 0-5.5328-.0484-6.8968-.0484h-1.8058c-.314 0-.412.0745-.412.4145v4.6542c.098.0732.2656.1005.391.1005.0955 0 .438 0 .5348-.0534 1.0947-2.2129 2.121-3.4093 3.413-4.0683.7286-.0695 2.1645-.0956 2.5555-.0956.0248.2656.0509 1.122.072 2.1434.026 1.755.026 2.5095.026 6.6523 0 3.5843-.026 5.1903-.0732 5.5788-.0968.6813.026 1.1964-2.8992 1.318-.0745.17-.0745.3624-.0745.5585 0 .0968 0 .293.026.3885h.9483c.9035 0 3.022-.0956 3.902-.0956.705 0 2.9725.0745 4.4568.0745h.6814c.0732-.1229.0732-.3885.0732-.5113 0-.1477-.0236-.319-.0955-.4406-.2706 0-1.8294.0484-2.5096-.463-.0744-.2656-.2209-.973-.2209-1.8281-.0236-2.6287-.0496-3.6278-.0496-5.3827 0-2.2662.026-3.8027.026-8.0188.3401 0 1.122-.0223 1.8505 0 1.513.4146 2.244.978 2.9005 1.8505.4133.5635.8539 1.5105 1.2907 2.6585.1477.0484.2706.0484.4146.0484.098 0 .4145-.0484.4617-.0968m21.419 3.0692c0-3.4093-1.5117-6.0156-4.339-7.5782-1.508-.829-3.0196-1.2435-4.628-1.2435-3.5558 0-6.7728 2.121-8.2137 4.535-.9258 1.5104-1.4086 3.1648-1.4086 4.9197 0 2.8024 1.364 5.5564 3.4825 7.1413 1.6097 1.1704 3.4354 1.75 5.5564 1.75 1.2945 0 2.5095-.2396 3.7035-.7025 1.3404-.515 2.4847-1.318 3.3857-2.3172 1.5849-1.7288 2.4611-3.9467 2.4611-6.5046m-4.4096-.463c0 3.68-1.024 6.923-2.4115 8.0673-.7062.5845-1.5849.8774-2.584.8774-1.3615 0-2.5591-.5374-3.238-1.632-.9259-1.4149-1.4397-4.0473-1.4397-6.3346 0-3.392.8762-6.0454 2.4363-7.3374.829-.6814 1.6805-.9482 2.5343-.9482 1.318 0 2.584.633 3.3138 1.6817.9258 1.2647 1.3888 3.094 1.3888 5.6259m27.921-7.7482c0-.0956-.0198-.2656-.0719-.34h-.5585c-1.22 0-1.9957.047-4.1924.047-.7559 0-1.8778-.047-2.1434-.047h-.633c-.0732.047-.098.3189-.098.4144 0 .123.0248.314.1203.4146.3935.1228 1.8778.288 2.5096.7074.4405.5101.6354 1.5315.7086 2.4835.0224.3624.0472.7285.0472 1.7288v5.0935c0 .5858-.0248.777-.0472 1.0487-.4157-.4629-.999-1.3404-1.9758-2.4363l-8.1367-9.019c-.072-.0956-.2197-.2172-.3649-.314-.196 0-.5361-.0261-.7285-.0261-1.5638 0-4.3873-.0695-4.803-.0695-.0472.0955-.0981.2395-.0981.3363 0 .0521.0509.3922.072.4667.3661.0955 1.1703.2184 1.8306.9258.3885.4357 1.0698 1.0475 1.2895 1.5365.0732.17.098.4357.098.777 0 1.2659-.0744 3.0469-.0744 4.7484v4.9508c0 .803-.0708 1.436-.1452 1.8505-.5089.5374-1.292.9258-2.5567 1.2398-.0509.1266-.0956.319-.0956.4406 0 .0745.0199.319.0695.3413h.4617c.4903 0 1.6122-.0744 2.3408-.0744 1.0723 0 1.8033.0744 2.8024.0744h1.462c.0955-.0223.1229-.319.1229-.4145 0-.0968-.0274-.293-.0745-.3897-.8514-.2172-2.0962-.4145-2.9253-1.5104-.17-.3662-.3152-2.1682-.3152-3.0246 0-.777-.0249-1.8455-.0249-3.2864 0-1.925.0249-3.6055.0497-4.4568.1477.17.3177.3884.4381.5324l11.258 12.6506c.1204.1179.5585.144.6814.144.1204 0 .1936 0 .293-.0485.0483-.1229.2183-.515.2183-1.0959 0-.7074-.0248-1.4409-.0248-1.802V19.5955c0-3.047 1.4372-3.8983 3.1177-3.9728.077-.1229.0968-.34.0968-.463M81.6252 42.484c0-.0956-.0484-.2445-.1204-.314h-.705c-.757 0-1.781.0471-2.6584.0471-.973 0-2.0689-.0471-2.7776-.0471h-.8762c-.0732.144-.0993.1911-.0993.314 0 .1005.026.196.0733.319.1005 0 1.8777.021 2.1942.4629.2681.366.8527 1.2659.9495 1.802.0471.2445.196 1.2436.196 2.6808 0 2.069 0 3.4565-.0235 4.19-.051 1.3664-.1974 2.4363-.4419 3.2393-.68 2.121-2.2625 3.1685-4.7732 3.1685-1.0736 0-1.9982-.2172-2.852-.6106-1.585-.777-2.3396-2.2663-2.362-3.0693l-.124-7.3063-.0224-2.9737c0-.5622.705-1.0736.9482-1.3652.1961-.0968 1.2672-.1974 1.8766-.2445.0745-.144.1216-.2185.1216-.3413 0-.1217-.072-.2445-.17-.314l-.9246.0223c-.9036.026-2.0963.0472-2.8509.0472-1.1703 0-2.0738-.0211-2.8024-.0211h-1.0214c-.1005.0695-.1241.2184-.1241.34 0 .1229.0236.2185.098.293.777.0955 1.2896.17 1.6321.2395.4133.2445.7074.659.8539 1.0735.0236.319.072 1.096.072 2.6324v5.8493c0 1.5104.0744 2.5803.2445 3.2654.314 1.2659.9966 2.2662 2.1185 2.9947 1.194.7807 2.6808 1.1692 4.4593 1.1692 1.6333 0 3.0209-.3401 4.1912-.9991 1.2175-.6553 1.9721-1.7289 2.4115-3.2393.242-.8986.391-1.8766.391-2.898v-4.679c0-.8774.047-1.9733.047-2.4139.0261-1.3143.3675-2.0962.7336-2.6808.3884-.1216.7297-.1923 2.0217-.34.0472-.0968.0956-.1713.0956-.293m22.5633-.1228c0-.0956-.0236-.17-.0745-.2395h-.5585c-1.2175 0-1.755.0484-3.9455.0484-.7583 0-1.8778-.0484-2.1434-.0484h-.6379c-.0695.0484-.0956.2184-.0956.314 0 .1228.0261.17.1217.2668.391.1216 1.8778.2929 2.5107.7074.4357.515.633 1.5365.7062 2.4872.0224.3624.0484.7298.0484 1.7289v7.238c0 .5846-.026.7807-.0484 1.0476-.4145-.463-1.1207-1.3665-2.0701-2.4885L88.692 42.5584c-.0744-.1005-.2184-.2184-.366-.319-.195 0-.437-.0223-.633-.0223-1.5589 0-2.9228-.0732-3.3399-.0732-.0459.0956-.0695.144-.0695.2445 0 .0472.0236.2445.046.314.366.1005 1.4384.2222 1.879.685.3885.437.973.947 1.1915 1.436.0744.17.1005.437.1005.782 0 1.2659-.0745 3.5793-.0745 5.2858v5.1903c0 .803-.0732 1.436-.1452 1.8505-.5138.5374-1.2932.9258-2.5604 1.2448-.0484.1216-.0968.17-.0968.2917 0 .0744.0223.2184.072.2407h.463c.4864 0 1.6084-.0707 2.3419-.0707 1.0698 0 1.5563.0707 2.5542.0707h1.4657c.0968-.0223.118-.2184.118-.3152 0-.0956-.0212-.1477-.072-.2445-.8502-.2172-2.0926-.4145-2.9216-1.5104-.1713-.3661-.319-2.2166-.319-3.068 0-.782-.0236-2.0479-.0236-3.4838 0-1.925.0236-4.5834.0497-5.4348.1464.1713.3661.4369.5349.633l11.5497 13.5243c.1204.1216.17.144.2954.144.1166 0 .0447 0 .144-.0485.0471-.1228.1216-.5113.1216-1.0959 0-.7074-.0236-1.436-.0236-1.802V46.6528c0-3.0469 1.4384-3.9032 3.1189-3.9727.072-.1217.0956-.1961.0956-.319M115.202 59.394c0-.1216-.0223-.2445-.072-.34-.3673-.0261-1.364-.1217-1.8045-.2185-.3897-.463-.6553-.999-.8303-1.8765-.0211-1.1704-.046-3.8239-.046-6.0939v-6.1856c0-.659.2669-1.1741.4394-1.318.463-.437 1.3875-.5375 2.167-.633.0508-.0956.0744-.2185.0744-.314a.4022.4022 0 00-.124-.293h-.705c-1.024 0-2.486.118-3.3163.118-.5076 0-1.972-.0695-3.0419-.0956h-.5374c-.0732.0956-.1216.0956-.1216.314 0 .1005.0236.1961.0484.319 1.1927.0993 1.73.2184 1.8976.34.2954.2222.71.7559.808 2.074.0223.4616.0484 1.7064.072 3.9454.0235 1.2175.0508 2.8769.0508 4.2867 0 .7112-.0508 2.5369-.0744 3.387-.0484.5858-.17 1.148-.3426 1.462-.2904.2445-.5833.6814-2.3618.808-.0496.0968-.0744.2668-.0744.3624 0 .196.0508.196.0508.319h.412c.9756 0 2.486-.123 3.752-.123.366 0 1.9733.0708 2.7788.0708h.8054c.0733-.1179.0956-.2184.0956-.3152m21.337-16.9795c0-.1006-.026-.2445-.1228-.2706h-.829c-.5846 0-1.5105.0472-1.925.0472-1.9734 0-2.6796-.1217-2.9725-.1217h-.4368c-.0522.1217-.1266.1961-.1266.319 0 .0956.0521.17.0521.2656a9.009 9.009 0 011.6805.3674c.2929.2916.6118.8774.6118 1.5364 0 .2396-.2445 1.3876-.5895 2.2167l-3.9194 9.647-4.8155-12.2087c.072-.5808.3885-1.1443.8005-1.3627.412-.0472.9197-.1961 1.5787-.1961.0484-.0956.0956-.2395.0956-.34 0-.0969-.0211-.2446-.1217-.2669h-.6106c-.7471 0-1.8902.0968-3.1822.0968-.5597 0-1.6556-.0484-2.7292-.0484h-.9494c-.0496.0956-.0956.144-.0956.2929 0 .144.0236.196.072.2917.6814.17 1.3404.4368 2.0466.8253.463.685 1.4633 3.1474 1.9994 4.4345l2.0168 4.8762c1.6767 4.0473 2.6758 6.748 2.7987 7.2109.1216.0744 0 .144.2184.144.2185 0 .1961-.0435.2445-.1651l6.285-15.108c.2184-.5374.5597-1.0475.8774-1.3925.3885-.4369 1.1927-.607 1.9473-.777.026-.0955.1006-.196.1006-.314m18.0394 13.2997c0-.34 0-.489-.0223-.7062-.123-.0744-.17-.0744-.3662-.0744-.1712 0-.1452 0-.3165.0521-.5373 1.7773-1.4607 3.0953-2.5107 3.7283-.3649.2184-1.024.2656-2.069.2656h-2.7304c-.8513-.026-1.3875-.0733-1.6084-.1217-.3649-.0695-.7559-.659-.9234-1.0475-.175-.4145-.2706-.5597-.2706-1.6804v-5.5577h.7807c.7794 0 1.4124.0522 2.0702.345.6106.2669 1.0735.6554 1.3155 1.0438.221.345.2942 1.6842.3426 2.0255.1204.0732.1948.0956.3884.0956.1949 0 .2185-.0224.391-.1217 0-.6553-.1465-2.4362-.1465-3.4093 0-1.2187.17-2.7068.242-3.5843-.0955-.0484-.1452-.0955-.3884-.0955-.1725 0-.242 0-.3897.0695-.072.345-.2693 1.3664-.3153 1.4409-.366.6056-1.2212 1.0946-1.8765 1.292-.4406.1216-1.0736.196-1.9994.196h-.3885v-2.3915c0-2.3358.0484-3.2877.0695-3.7283.026-.293.0745-.607.1005-.8253.2185-.0261.9259-.0484 2.0479-.0484 1.4098 0 2.4598.0223 2.6795.0223.6814.0484 1.1927.196 1.5588.489 1.194.9259 1.5104 1.5365 2.1695 3.0208.1464.0484.1675.0484.2929.0484.144 0 .17-.0484.3624-.1452 0-1.488-.0968-3.1685-.1452-3.7791-.0261-.2445-.0733-.3153-.5598-.3153-.1948 0-1.1207-.0471-2.0937-.0471-1.3925 0-1.951.021-4.072.021-1.1444 0-3.1649.0261-4.1652.0261-1.462 0-1.781-.0471-2.4164-.0471h-.8328c-.0745.0955-.1254.1911-.1254.2879 0 .1266.051.2445.1254.345.2941.0956 1.4471.0733 1.7872.2656.34.293.6565.3674.8774 1.5365.0484.5113.0745 2.1695.0745 3.2914v5.0153c0 1.0214-.026 2.7069-.0509 3.3138-.0496.9519-.391 2.147-.5362 2.3655-.2209.17-1.22.3152-2.203.3624-.0744.149-.124.2445-.124.3934 0 .144.0496.2172.124.3401h.8105c.7832 0 2.7342-.0745 3.3895-.0745.6106 0 1.4384.0484 2.852.0484.7794 0 3.0693.149 7.9927.149.1949 0 .4133.026.6566-.0484.0745-.123.0745-.17.0993-.3885.0459-.489.0459-1.6854.0459-3.6588m20.4434 3.7022c0-.1179-.0459-.2668-.1203-.3624-.2433 0-1.2436-.0484-1.6097-.319-.1204-.1439-.3153-.4356-.4133-.6056-.3165-1.122-.6566-2.1223-1.024-3.0469-.51-1.2188-1.2175-2.3668-1.802-2.8992-.2185-.1961-.901-.515-1.755-.803-.3884-.149-.7074-.2706-.999-.3934.366-.0695.5361-.0956.999-.144 1.585-.1961 2.1211-.5362 2.584-.9035.973-.7286 1.6073-1.8244 1.6073-3.1425 0-1.9734-1.2672-3.8499-3.0457-4.4084-.5846-.1713-1.6345-.2668-2.924-.2668-1.827 0-3.1934.1663-4.411.1663-.3623 0-1.5588-.0484-2.4102-.0484-.366 0-1.292-.0484-1.4384-.0484-.072.17-.1216.2234-.1216.319 0 .0955.0236.2395.0496.34.4133.0484 1.1679.1452 1.5588.2184.5846.4369.7807.782 1.024 1.318.1191.777.1452 2.9738.1452 6.4091 0 2.4835.0248 5.6049-.0993 6.5295-.0708.6069-.2892 1.3354-.9979 1.6283-.3164.0521-.901.149-1.3888.175-.0732.118-.124.2184-.124.34 0 .0745.0508.17.1005.293.34 0 3.1424-.0745 3.9218-.0745 1.5614 0 1.9498.0745 3.3374.0745.0509-.1006.1005-.17.1005-.2706 0-.17-.0496-.2668-.1005-.3624-.484-.0484-1.096-.196-1.364-.2445-.6094-.2929-1.045-.8775-1.045-1.7326l-.026-6.09c.196-.0261.901-.0261 1.0946-.0261.659 0 1.3193.052 1.9498.345.927.4096 1.8045 1.0698 2.389 1.9733.7795 1.2176 1.292 3.531 1.5366 5.307.0707.5163.2668.952.7297 1.0003.1936.0261.489.0745 1.4136.0745h2.5319c.1005-.0968.1464-.1924.1464-.319m-5.1158-12.9124c0 1.5588-1.2423 3.3137-2.6783 3.6327-.587.1216-1.4397.1961-2.5356.1961-.2929 0-1.122 0-1.4868-.0534l-.0236-2.1421v-4.6057c0-.319.0745-.489.17-.5585.0981-.0745 1.096-.149 1.7053-.149 2.2886 0 3.3386.2185 4.1677 1.4149.4629.659.6813 1.4136.6813 2.265m21.5617 8.4072c0-1.951-.8725-3.2864-2.7528-4.2867-.5125-.2917-1.411-.6107-2.703-.9768-1.487-.4158-2.7293-.8998-3.5335-1.3404-.535-.2929-1.4384-1.0959-1.4384-2.6547 0-1.5576 1.586-2.8496 3.4353-2.8496 1.462 0 2.6337.7286 3.3386 1.7016.6119.8563.8303 1.2448 1.5104 2.7813.0745.021.17.0484.2445.0484.2185 0 .4146-.1229.5374-.2457-.0744-.6107-.1948-1.462-.1948-2.1906 0-.633.1464-1.462.2209-1.9026-.1986-.2929-.417-.3413-.7335-.3413-.34.2222-.659.5585-.952.8775-1.606-1.292-2.9215-1.5105-4.1403-1.5105-2.996 0-5.1394 1.9995-5.1394 4.653 0 .9047.314 1.781.8986 2.6807.5374.7546 1.318 1.3404 2.3668 1.781.705.288 3.871 1.2436 4.3103 1.4149 1.9486.7545 2.682 1.4098 2.682 3.1375 0 .8563-.366 1.611-1.0735 2.4623-.633.782-1.6333 1.148-2.7044 1.148-1.1455 0-3.1189-.489-4.0944-1.802-.5845-.7559-1.4123-2.3408-1.6568-3.2915-.17-.0484-.17-.0484-.3401-.0484-.1465 0-.319.0484-.463.144 0 .319.0981 1.925.0981 2.414 0 1.1914-.2209 1.776-.268 2.1694.072.2445.4864.489.7806.489.5088-.4406 1.0438-.7819 1.2188-.7819.144 0 .3624.0695.5795.2184 1.585 1.0264 2.903 1.2176 4.0734 1.2176 3.4353 0 5.8927-1.7277 5.8927-5.1159m12.0387 4.4829c0-.1216-.026-.2445-.0732-.34-.3624-.0261-1.364-.1217-1.8033-.2185-.3885-.463-.6566-.999-.8266-1.8765-.0248-1.1704-.0509-3.8239-.0509-6.0939v-6.1856c0-.659.2706-1.1741.4394-1.318.4616-.437 1.39-.5375 2.167-.633.0496-.0956.0744-.2185.0744-.314 0-.149-.0745-.2445-.1204-.293h-.705c-1.0251 0-2.4884.118-3.3174.118-.5114 0-1.9734-.0695-3.0444-.0956h-.5374c-.072.0956-.1204.0956-.1204.314 0 .1005.0248.1961.0484.319 1.1964.0993 1.7313.2184 1.9013.34.2917.2222.705.7559.8055 2.074.0236.4616.0447 1.7064.0695 3.9454.026 1.2175.0497 2.8769.0497 4.2867 0 .7112-.0497 2.5369-.0745 3.387-.0447.5858-.17 1.148-.3376 1.462-.2954.2445-.587.6814-2.3655.808-.0484.0968-.072.2668-.072.3624 0 .196.0447.196.0447.319h.417c.9767 0 2.486-.123 3.7518-.123.3674 0 1.9722.0708 2.7814.0708h.8005c.072-.1179.098-.2184.098-.3152m20.2511-12.0337v-4.7274c0-.3674-.149-.463-.5138-.463-.731 0-4.0944.0956-7.9927.0956-3.0234 0-5.0439-.0484-6.409-.0484h-1.8022c-.3152 0-.4157.0708-.4157.4158v4.4084c.1005.0745.175.0956.2904.0956.1018 0 .1973 0 .2954-.0484.9506-2.121 1.4372-3.238 3.0705-4.0671.7297-.0745 3.2876-.0968 3.6798-.0968.0236.2668.0484 1.1182.0733 2.1433.0248 1.755.0248 2.702.0248 6.8497 0 3.5793-.0248 5.4298-.0745 5.8183-.0956.685.0248 1.1964-2.898 1.318-.0757.17-.0757.2185-.0757.4146 0 .0955 0 .1923.026.2929h.9495c.901 0 2.095-.1006 2.9737-.1006.7062 0 2.0466.0745 3.5334.0745h.6814c.0732-.1229.0732-.2445.0732-.3624 0-.149-.0248-.2234-.098-.345-.2681 0-1.8257.0521-2.5095-.463-.0745-.2656-.2222-.973-.2222-1.8244-.0198-2.6324-.046-3.876-.046-5.6309 0-2.265.0262-3.9938.0262-8.2111.34 0 2.1433-.0223 2.8768 0 1.5067.4145 2.0913.9743 2.749 1.8505.5859.7819.7323 1.4893 1.0947 2.6584.1502.0484.221.0484.3686.0484.0944 0 .2197-.0484.2706-.0955m19.6839-5.0203c0-.149-.0968-.1961-.1452-.2929-.9991 0-2.3134.0745-2.8272.0745-1.2436 0-2.7516-.1006-3.4106-.1006-.0745.149-.0993.17-.0993.293a.888.888 0 00.0497.2916c.7086.144 1.73.319 1.9261.6603.17.314.2197.5585.2197.947 0 .2916-.0223.5845-.1477.9034-.2184.607-.6813 1.5576-1.3391 2.898-1.122 2.265-1.8282 3.6799-2.2191 4.2384-.6317-1.0686-2.0453-3.8934-2.3842-4.6268l-1.3677-2.9725c-.0471-.0956-.0968-.4406-.0968-.659 0-.314.0497-.5374.0968-.633.221-.4368.9768-.4852 1.9995-.6118.0471-.1167.072-.2656.072-.3612 0-.1713-.072-.1229-.1453-.2445h-.438c-1.6334 0-1.1469.0732-3.9493.0732-1.1914 0-2.6311-.0732-2.8247-.0732-.098.17-.1477.1961-.1477.3661 0 .0956.0248.17.1005.293 1.6296.3884 2.116.68 2.2886.999l4.2644 8.3551c.4133.782.6566 1.3876.7795 1.8294.17.6801.1973 1.6805.1973 2.9203 0 1.0512-.3674 1.6097-.7831 1.8815-.1688.0956-1.39.2656-1.9486.314-.098.17-.1253.2185-.1253.3401 0 .1216.052.196.077.2929 1.2423 0 2.5342-.026 3.2653-.026.5113 0 1.2907.026 2.7279.052.8278.0212 1.462.0485 1.9001.0485.0497-.1006.1254-.1974.1254-.319 0-.1179-.0273-.1924-.1005-.314-.7807-.0968-1.8729-.2445-2.1186-.489-.3922-.4158-.5833-.6069-.6355-1.5588l-.1936-3.6575c-.0248-.2669.0733-.5114.098-.5809.0708-.2705.1676-.489.2632-.685l3.7556-7.4306c.3388-.633 1.0723-1.3391 1.56-1.632.3438-.2184 1.0972-.3661 1.5837-.489.0521-.1216.0968-.2184.0968-.314"/></svg>